<?xml version="1.0" encoding="UTF-8" standalone="no"?>
<svg
   xmlns:dc="http://purl.org/dc/elements/1.1/"
   xmlns:cc="http://creativecommons.org/ns#"
   xmlns:rdf="http://www.w3.org/1999/02/22-rdf-syntax-ns#"
   xmlns:svg="http://www.w3.org/2000/svg"
   xmlns="http://www.w3.org/2000/svg"
   xmlns:sodipodi="http://sodipodi.sourceforge.net/DTD/sodipodi-0.dtd"
   xmlns:inkscape="http://www.inkscape.org/namespaces/inkscape"
   width="64"
   height="64"
   viewBox="0 0 16.933333 16.933334"
   version="1.1"
   id="svg8"
   inkscape:version="0.92.3 (2405546, 2018-03-11)"
   sodipodi:docname="27-Bank.svg"
   inkscape:export-filename="/home/wanzabuyumna/@WANZ_DESIGN/NICON STUDIO MAGANG/Style Line/Style Line/Icon 8/Icon 8.png"
   inkscape:export-xdpi="96"
   inkscape:export-ydpi="96">
  <defs
     id="defs2" />
  <sodipodi:namedview
     id="base"
     pagecolor="#ffffff"
     bordercolor="#959595"
     borderopacity="1"
     inkscape:pageopacity="0"
     inkscape:pageshadow="2"
     inkscape:zoom="5.6"
     inkscape:cx="-0.005808175"
     inkscape:cy="8.9375033"
     inkscape:document-units="px"
     inkscape:current-layer="layer1"
     inkscape:document-rotation="0"
     showgrid="false"
     units="px"
     inkscape:window-width="1920"
     inkscape:window-height="1040"
     inkscape:window-x="0"
     inkscape:window-y="0"
     inkscape:window-maximized="1"
     inkscape:pagecheckerboard="0" />
  <metadata
     id="metadata5">
    <rdf:RDF>
      <cc:Work
         rdf:about="">
        <dc:format>image/svg+xml</dc:format>
        <dc:type
           rdf:resource="http://purl.org/dc/dcmitype/StillImage" />
      </cc:Work>
    </rdf:RDF>
  </metadata>
  <g
     inkscape:label="27-Bank"
     inkscape:groupmode="layer"
     id="layer1">
    <path
       id="path5572"
       d="m 11.634401,4.7624999 3.446821,1.8520833 V 8.202077 H 1.8520515 V 6.6145832 l 3.45039,-1.8542263 z"
       style="fill:#e4eff8;fill-opacity:1;stroke:none;stroke-width:0.529167;stroke-linecap:round;stroke-linejoin:round;paint-order:stroke fill markers"
       inkscape:connector-curvature="0"
       sodipodi:nodetypes="ccccccc" />
    <path
       style="fill:#f7cb24;fill-opacity:0.99235295;stroke:none;stroke-width:0.529167;stroke-linecap:butt;stroke-linejoin:round;stroke-miterlimit:4;stroke-dasharray:none;paint-order:stroke markers fill"
       d="m 11.641639,3.9687417 c 0,1.7535037 -1.421496,3.1749993 -3.1749995,3.1749994 -1.7535039,0 -3.1749996,-1.4214956 -3.1749997,-3.1749994 0,-1.7535038 1.4214958,-3.17499952 3.1749997,-3.17499952 1.7535035,1.1e-7 3.1749995,1.42149582 3.1749995,3.17499952 z"
       id="ellipse5579"
       inkscape:connector-curvature="0"
       sodipodi:nodetypes="ccccc" />
    <path
       style="fill:#c4dcf0;fill-opacity:1;stroke:none;stroke-width:0.26458332px;stroke-linecap:butt;stroke-linejoin:miter;stroke-opacity:1"
       d="m 2.9104166,7.6760905 c -0.6268449,0.00657 -1.0583333,-0.00317 -1.0583333,-0.00317 V 8.2020832 H 15.08125 v -1.5875 L 13.843176,5.9491062 C 12.383948,7.4083332 7.1437499,7.6760905 2.9104166,7.6760905 Z"
       id="path5574"
       inkscape:connector-curvature="0"
       sodipodi:nodetypes="ccccccc" />
    <path
       sodipodi:nodetypes="ccccc"
       d="m 2.9104216,8.202077 h 1.5875 l 0.26458,4.762487 h -2.11667 z"
       style="fill:#e4eff8;fill-opacity:1;stroke:none;stroke-width:0.529167;stroke-linecap:round;stroke-linejoin:round;paint-order:stroke fill markers"
       id="path5568"
       inkscape:connector-curvature="0" />
    <path
       style="fill:#c4dcf0;fill-opacity:1;stroke:none;stroke-width:0.26458332px;stroke-linecap:butt;stroke-linejoin:miter;stroke-opacity:1"
       d="m 4.2250945,8.2020832 c 0,2.1166668 -0.2563151,3.8875818 -1.5466755,4.2333338 L 2.645863,12.964583 H 4.7625294 L 4.4979461,8.2020832 Z"
       id="path5570"
       inkscape:connector-curvature="0"
       sodipodi:nodetypes="cccccc" />
    <path
       inkscape:connector-curvature="0"
       id="path5564"
       style="fill:#e4eff8;fill-opacity:1;stroke:none;stroke-width:0.529167;stroke-linecap:round;stroke-linejoin:round;paint-order:stroke fill markers"
       d="m 7.6728915,8.202077 h 1.5875 l 0.26458,4.762487 h -2.11667 z"
       sodipodi:nodetypes="ccccc" />
    <path
       sodipodi:nodetypes="cccccc"
       inkscape:connector-curvature="0"
       id="path5566"
       d="m 8.9875644,8.2020832 c 0,2.1166668 -0.2563151,3.8875818 -1.5466755,4.2333338 l -0.032556,0.529166 H 9.5249993 L 9.260416,8.2020832 Z"
       style="fill:#c4dcf0;fill-opacity:1;stroke:none;stroke-width:0.26458332px;stroke-linecap:butt;stroke-linejoin:miter;stroke-opacity:1" />
    <path
       sodipodi:nodetypes="ccccc"
       d="m 12.435392,8.202077 h 1.5875 l 0.26458,4.762487 h -2.11667 z"
       style="fill:#e4eff8;fill-opacity:1;stroke:none;stroke-width:0.529167;stroke-linecap:round;stroke-linejoin:round;paint-order:stroke fill markers"
       id="path5557"
       inkscape:connector-curvature="0" />
    <path
       style="fill:#c4dcf0;fill-opacity:1;stroke:none;stroke-width:0.26458332px;stroke-linecap:butt;stroke-linejoin:miter;stroke-opacity:1"
       d="m 13.750065,8.2020832 c 0,2.1166668 -0.256315,3.8875818 -1.546676,4.2333338 l -0.03256,0.529166 H 14.2875 L 14.022916,8.2020832 Z"
       id="path5559"
       inkscape:connector-curvature="0"
       sodipodi:nodetypes="cccccc" />
    <path
       id="path5553"
       d="m 5.0270816,14.552064 v -1.587487 h -2.64583 v 1.587487 z"
       style="fill:#e4eff8;fill-opacity:1;stroke:none;stroke-width:0.529167;stroke-linecap:butt;stroke-linejoin:round;paint-order:stroke fill markers"
       inkscape:connector-curvature="0"
       sodipodi:nodetypes="ccccc" />
    <path
       style="fill:#c4dcf0;fill-opacity:1;stroke:none;stroke-width:0.26458332px;stroke-linecap:butt;stroke-linejoin:miter;stroke-opacity:1"
       d="m 4.5806294,12.964583 c -0.2581429,1.073453 -1.6701823,1.058333 -2.1993489,1.058333 v 0.529167 h 2.6458333 v -1.5875 z"
       id="path5555"
       inkscape:connector-curvature="0"
       sodipodi:nodetypes="cccccc" />
    <path
       sodipodi:nodetypes="ccccc"
       inkscape:connector-curvature="0"
       style="fill:#e4eff8;fill-opacity:1;stroke:none;stroke-width:0.529167;stroke-linecap:butt;stroke-linejoin:round;paint-order:stroke fill markers"
       d="m 9.789551,14.552064 v -1.587487 h -2.64583 v 1.587487 z"
       id="path5549" />
    <path
       sodipodi:nodetypes="cccccc"
       inkscape:connector-curvature="0"
       id="path5551"
       d="m 9.3430988,12.964583 c -0.2581429,1.073453 -1.6701823,1.058333 -2.1993489,1.058333 v 0.529167 h 2.6458333 v -1.5875 z"
       style="fill:#c4dcf0;fill-opacity:1;stroke:none;stroke-width:0.26458332px;stroke-linecap:butt;stroke-linejoin:miter;stroke-opacity:1" />
    <path
       id="path5542"
       d="m 14.552051,14.552064 v -1.587487 h -2.64583 v 1.587487 z"
       style="fill:#e4eff8;fill-opacity:1;stroke:none;stroke-width:0.529167;stroke-linecap:butt;stroke-linejoin:round;paint-order:stroke fill markers"
       inkscape:connector-curvature="0"
       sodipodi:nodetypes="ccccc" />
    <path
       sodipodi:nodetypes="ccccc"
       inkscape:connector-curvature="0"
       style="fill:#e4eff8;fill-opacity:1;stroke:none;stroke-width:0.529167;stroke-linecap:butt;stroke-linejoin:round;paint-order:stroke fill markers"
       d="M 15.081222,16.139564 V 14.552077 H 1.8520515 v 1.587487 z"
       id="path5535" />
    <path
       style="fill:#c4dcf0;fill-opacity:1;stroke:none;stroke-width:0.26458332px;stroke-linecap:butt;stroke-linejoin:miter;stroke-opacity:1"
       d="M 14.552083,14.552083 C 13.229167,15.875 2.6458333,15.610416 2.6458333,15.610416 h -0.79375 v 0.529167 H 15.08125 v -1.5875 z"
       id="path5537"
       inkscape:connector-curvature="0"
       sodipodi:nodetypes="ccccccc" />
    <path
       inkscape:connector-curvature="0"
       style="fill:#f5f9fb;fill-opacity:1;stroke:none;stroke-width:0.529167;stroke-linecap:butt;stroke-linejoin:round;paint-order:stroke fill markers"
       d="m 1.8520833,14.552083 v 1.5875 H 2.38125 v -1.5875 z"
       id="path5621"
       sodipodi:nodetypes="ccccc" />
    <path
       inkscape:connector-curvature="0"
       style="fill:#c4dcf0;fill-opacity:1;stroke:none;stroke-width:0.529167;stroke-linecap:round;stroke-linejoin:round;paint-order:stroke fill markers"
       d="m 12.435416,8.2020832 -0.02946,0.5291667 h 1.646411 l -0.02946,-0.5291667 z"
       id="path5652"
       sodipodi:nodetypes="ccccc" />
    <path
       id="path5642"
       d="M 12.435417,8.2020832 12.170833,12.964583 H 12.7 l 0.264583,-4.7624998 z"
       style="fill:#f5f9fb;fill-opacity:1;stroke:none;stroke-width:0.529167;stroke-linecap:round;stroke-linejoin:round;paint-order:stroke fill markers"
       inkscape:connector-curvature="0"
       sodipodi:nodetypes="ccccc" />
    <path
       inkscape:connector-curvature="0"
       style="fill:#f5f9fb;fill-opacity:1;stroke:none;stroke-width:0.529167;stroke-linecap:round;stroke-linejoin:round;paint-order:stroke fill markers"
       d="M 5.3826171,4.707723 1.8520833,6.6145832 v 1.5875 H 2.38125 V 6.8791666 L 5.5366128,5.1836629 C 5.4728436,5.0293132 5.421352,4.8701728 5.3826171,4.707723 Z"
       id="path5609"
       sodipodi:nodetypes="ccccccc" />
    <path
       inkscape:connector-curvature="0"
       style="fill:#ecb200;fill-opacity:1;stroke:none;stroke-width:0.529167;stroke-linecap:butt;stroke-linejoin:round;stroke-miterlimit:4;stroke-dasharray:none;paint-order:stroke markers fill"
       d="M 9.3281126,0.91570637 C 10.117507,1.5149749 10.581781,2.4484907 10.583333,3.4395833 c 0,1.753504 -1.4214957,3.175 -3.1749998,3.1749999 C 7.1169487,6.6136533 6.8270791,6.5726159 6.5468872,6.4926267 7.0984707,6.9136174 7.7727823,7.1423207 8.4666666,7.1437499 10.220171,7.1437503 11.641667,5.7222542 11.641667,3.96875 11.640388,2.5480745 10.695498,1.3011656 9.3281126,0.91570637 Z"
       id="ellipse5598"
       sodipodi:nodetypes="ccccccc" />
    <path
       inkscape:connector-curvature="0"
       style="fill:#f5f9fb;fill-opacity:1;stroke:none;stroke-width:0.529167;stroke-linecap:butt;stroke-linejoin:round;stroke-miterlimit:4;stroke-dasharray:none;paint-order:stroke markers fill"
       d="m 8.4666666,0.79374999 c -1.7535043,-1.7e-7 -3.1750003,1.42149591 -3.175,3.17500001 -3e-7,1.7535041 1.4214958,3.1750001 3.175,3.1749999 0.089887,-4.932e-4 0.1797127,-0.0048 0.2692341,-0.012919 C 7.0895922,6.9955965 5.8220094,5.620603 5.8208333,3.96875 5.8216031,2.3201824 7.083969,0.94646435 8.726599,0.80666909 8.6401679,0.79881195 8.5534509,0.79450196 8.4666666,0.79374999 Z"
       id="ellipse5603"
       sodipodi:nodetypes="ccccccc" />
    <path
       style="fill:#c4dcf0;fill-opacity:1;stroke:none;stroke-width:0.26458332px;stroke-linecap:butt;stroke-linejoin:miter;stroke-opacity:1"
       d="m 14.105599,12.964583 c -0.258143,1.073453 -1.670182,1.058333 -2.199349,1.058333 v 0.529167 h 2.645833 v -1.5875 z"
       id="path5544"
       inkscape:connector-curvature="0"
       sodipodi:nodetypes="cccccc" />
    <path
       id="path5640"
       d="m 11.90625,12.964583 v 1.5875 h 0.529167 v -1.5875 z"
       style="fill:#f5f9fb;fill-opacity:1;stroke:none;stroke-width:0.529167;stroke-linecap:butt;stroke-linejoin:round;paint-order:stroke fill markers"
       inkscape:connector-curvature="0"
       sodipodi:nodetypes="ccccc" />
    <path
       inkscape:connector-curvature="0"
       style="fill:#f5f9fb;fill-opacity:1;stroke:none;stroke-width:0.529167;stroke-linecap:butt;stroke-linejoin:round;paint-order:stroke fill markers"
       d="m 2.38125,12.964583 v 1.5875 h 0.5291666 v -1.5875 z"
       id="path5624"
       sodipodi:nodetypes="ccccc" />
    <path
       id="path5632"
       d="m 7.1437499,12.964583 v 1.5875 h 0.5291666 v -1.5875 z"
       style="fill:#f5f9fb;fill-opacity:1;stroke:none;stroke-width:0.529167;stroke-linecap:butt;stroke-linejoin:round;paint-order:stroke fill markers"
       inkscape:connector-curvature="0"
       sodipodi:nodetypes="ccccc" />
    <path
       inkscape:connector-curvature="0"
       style="fill:#f5f9fb;fill-opacity:1;stroke:none;stroke-width:0.529167;stroke-linecap:butt;stroke-linejoin:round;paint-order:stroke fill markers"
       d="m 7.1437499,12.964583 v 1.5875 h 0.5291666 v -1.5875 z"
       id="path5636"
       sodipodi:nodetypes="ccccc" />
    <path
       inkscape:connector-curvature="0"
       style="fill:#f5f9fb;fill-opacity:1;stroke:none;stroke-width:0.529167;stroke-linecap:round;stroke-linejoin:round;paint-order:stroke fill markers"
       d="M 7.6729165,8.2020832 7.4083332,12.964583 H 7.9374998 L 8.2020832,8.2020832 Z"
       id="path5638"
       sodipodi:nodetypes="ccccc" />
    <path
       id="path5650"
       d="M 7.6729165,8.2020832 7.643461,8.7312499 H 9.289872 L 9.2604165,8.2020832 Z"
       style="fill:#c4dcf0;fill-opacity:1;stroke:none;stroke-width:0.529167;stroke-linecap:round;stroke-linejoin:round;paint-order:stroke fill markers"
       inkscape:connector-curvature="0"
       sodipodi:nodetypes="ccccc" />
    <path
       id="path5634"
       d="M 7.6729165,8.2020832 7.4083332,12.964583 H 7.9374998 L 8.2020832,8.2020832 Z"
       style="fill:#f5f9fb;fill-opacity:1;stroke:none;stroke-width:0.529167;stroke-linecap:round;stroke-linejoin:round;paint-order:stroke fill markers"
       inkscape:connector-curvature="0"
       sodipodi:nodetypes="ccccc" />
    <path
       inkscape:connector-curvature="0"
       style="fill:#c4dcf0;fill-opacity:1;stroke:none;stroke-width:0.529167;stroke-linecap:round;stroke-linejoin:round;paint-order:stroke fill markers"
       d="m 2.9104166,8.2020832 -0.029456,0.5291667 h 1.646411 L 4.4979166,8.2020832 Z"
       id="path5645"
       sodipodi:nodetypes="ccccc" />
    <path
       inkscape:connector-curvature="0"
       style="fill:#f5f9fb;fill-opacity:1;stroke:none;stroke-width:0.529167;stroke-linecap:round;stroke-linejoin:round;paint-order:stroke fill markers"
       d="M 2.9104166,8.2020832 2.6458333,12.964583 H 3.175 L 3.4395833,8.2020832 Z"
       id="path5627"
       sodipodi:nodetypes="ccccc" />
    <path
       id="Ic_27"
       style="color:#000000;display:inline;fill:#333333;fill-opacity:1;stroke-width:0.99999797;stroke-linecap:round;stroke-linejoin:bevel"
       d="m 14.287527,8.4666672 h 0.79788 c 0.14614,-6.62e-4 0.26411,-0.119548 0.26355,-0.265617 v -1.58595 c 7.4e-4,-0.09777 -0.0525,-0.187987 -0.13849,-0.234611 l -3.3569,-1.801957 c 0.0356,-0.198072 0.0543,-0.401618 0.0543,-0.609782 0,-1.896492 -1.54371,-3.43958295 -3.4411903,-3.43958295 -1.89747,0 -3.44118,1.54309095 -3.44118,3.43958295 0,0.208339 0.0186,0.41207 0.0543,0.610299 l -3.3569,1.80144 c -0.086,0.04662 -0.13924,0.136839 -0.13849,0.234611 v 1.58595 c -5.6e-4,0.146069 0.11741,0.264961 0.26355,0.265617 h 0.79736 l -0.26406,4.2326268 c -0.14289,5.82e-4 -0.26514,0.11922 -0.26459,0.265289 V 14.2875 l -0.26871,-5.29e-4 c -0.14614,6.61e-4 -0.26411,0.119547 -0.26355,0.265616 V 15.875 H 0.79271671 c -0.14534,6.37e-4 -0.26298,0.118281 -0.26355,0.26355 -5.7e-4,0.146075 0.11741,0.264975 0.26355,0.265616 H 16.140617 c 0.14615,-6.41e-4 0.26413,-0.119541 0.26355,-0.265616 -5.6e-4,-0.145269 -0.11821,-0.262913 -0.26355,-0.26355 h -0.79168 v -1.3224 c 5.6e-4,-0.146069 -0.11741,-0.264961 -0.26355,-0.265617 h -0.26613 v -1.3224 c 5.5e-4,-0.146069 -0.11741,-0.264961 -0.27155,-0.265617 z M 8.4666267,1.0583342 c 1.6113103,0 2.9114503,1.299907 2.9114503,2.910416 0,1.61051 -1.30014,2.9099 -2.9114503,2.9099 -1.6113,0 -2.91145,-1.29939 -2.91145,-2.9099 0,-1.610509 1.30015,-2.910416 2.91145,-2.910416 z m 0,0.529683 c -0.14614,-5e-4 -0.26504,0.117475 -0.26561,0.26355 v 0.265617 h -0.26407 c -0.43537,0 -0.79323,0.357558 -0.79323,0.792716 v 0.529684 c 0,0.435159 0.35786,0.792716 0.79323,0.792716 h 0.26407 v 1.058333 h -0.26407 c -0.15123,0 -0.26355,-0.112397 -0.26355,-0.263549 5.8e-4,-0.147086 -0.11898,-0.266407 -0.26613,-0.265617 -0.14615,6.41e-4 -0.26413,0.119541 -0.26355,0.265617 0,0.435152 0.35786,0.793233 0.79323,0.793233 h 0.26407 v 0.265617 c 5.8e-4,0.146074 0.11947,0.264049 0.26561,0.26355 0.14534,-6.35e-4 0.26299,-0.118281 0.26355,-0.26355 v -0.265617 h 0.26614 c 0.43537,0 0.79323,-0.358075 0.79323,-0.793233 v -0.529167 c 0,-0.435159 -0.35786,-0.792717 -0.79323,-0.792717 h -0.26614 v -1.05885 h 0.26614 c 0.15123,0 0.26355,0.112398 0.26355,0.26355 -5.9e-4,0.147086 0.11897,0.266407 0.26613,0.265617 0.14615,-6.41e-4 0.26412,-0.119541 0.26355,-0.265617 0,-0.435152 -0.35786,-0.792716 -0.79323,-0.792716 h -0.26614 v -0.265617 c -5.6e-4,-0.145269 -0.11821,-0.262912 -0.26355,-0.26355 z m -0.52968,1.058333 h 0.26407 v 1.05885 h -0.26407 c -0.15123,0 -0.26355,-0.114468 -0.26355,-0.265616 v -0.529684 c 0,-0.151146 0.11232,-0.26355 0.26355,-0.26355 z m 0.79323,1.58595 h 0.26614 c 0.15123,0 0.26355,0.114469 0.26355,0.265617 v 0.529167 c 0,0.151146 -0.11232,0.263549 -0.26355,0.263549 h -0.26614 z m -3.51141,0.872815 c 0.25936,0.738266 0.76372,1.362137 1.41542,1.773535 h -1.07901 c -0.14715,-7.94e-4 -0.26671,0.118532 -0.26613,0.265617 5.8e-4,0.146277 0.11978,0.264336 0.26613,0.26355 h 5.8229003 c 0.14635,7.94e-4 0.26557,-0.117273 0.26614,-0.26355 5.8e-4,-0.147085 -0.11898,-0.266407 -0.26614,-0.265617 h -1.079 c 0.65156,-0.411313 1.15601,-1.034952 1.41542,-1.773018 l 3.10472,1.667598 v 1.16427 H 2.1140467 v -1.16427 z m -2.0438,3.361552 h 1.05781 L 4.4978767,12.7 2.9227867,12.699 Z m 1.5875,0 h 2.64325 l -0.262,4.2320558 c -0.14167,0 -0.26618,0.118984 -0.26562,0.26586 v 1.3224 h -1.58905 l 0.003,-1.3224 c 0.003,-0.145983 -0.1188,-0.264583 -0.26458,-0.265289 z m 3.175,0 h 1.05833 l 0.2646,4.2333248 -1.58752,-10e-4 z m 3.7068003,4.4979158 v 1.3224 h -1.58905 v -1.3224 c 5.6e-4,-0.146876 -0.1117603,-0.265078 -0.2656603,-0.264591 l -0.26459,-4.2333248 h 2.6453103 l -0.25551,4.2322988 c -0.15309,6.56e-4 -0.27106,0.119548 -0.2705,0.265617 z m 1.0557,-4.4979158 h 1.05781 l 0.2527,4.2322988 h -1.55753 z m -10.0541703,4.7624988 2.11408,-10e-4 v 1.05885 l -2.11408,5.15e-4 z m 4.76147,-10e-4 h 2.11873 v 1.05885 h -2.11873 z m 4.7645603,0 h 2.11822 v 1.05885 h -2.11822 z M 2.1140467,14.816181 H 14.819217 V 15.875 H 2.1140467 Z"
       sodipodi:nodetypes="cccccccccccccccccccccccccccccccccccccccccccccccccccccccccccccccccccccccccccccccccccccccccccccccccccccccccccccccccccccccccccccccccccccccccccccccccccccccccc"
       inkscape:export-filename="/home/wanzabuyumna/@WANZ_DESIGN/NICON STUDIO MAGANG/Project 3/Style Line/PNG/Ic_27.png"
       inkscape:export-xdpi="102.39997"
       inkscape:export-ydpi="102.39997"
       inkscape:connector-curvature="0" />
  </g>
</svg>
